# xmcd CD database file
#
# Track frame offsets:
#	150
#	11150
#	27857
#	41962
#	54540
#	71532
#	93337
#	111650
#	126732
#	138920
#	152345
#	164142
#	179687
#	195357
#
# Disc length: 2829 seconds
#
# Revision: 0
# Processed by: cddbd v1.5.1PL0 Copyright (c) Steve Scherf et al.
# Submitted via: CDex 1.51
#
DISCID=ce0b0b0e
DTITLE=amin - 同じ空の下
DYEAR=2004
DGENRE=Pop
TTITLE0=Spicks and Specks
TTITLE1=China Dress
TTITLE2=Days Like This
TTITLE3=さよならを教えて〜It hurts to say good-bye〜
TTITLE4=少女模様
TTITLE5=Forever Eighteen
TTITLE6=これからもう会えなくなるかな
TTITLE7=Butterfly
TTITLE8=ずっとそばにいるよ
TTITLE9=Love you 'till Tomorrow
TTITLE10=上海ムーン
TTITLE11=Birthday Card
TTITLE12=Bring Back the Sun
TTITLE13=大きな河と小さな恋(Sweet Version)
EXTD=YEAR: 2004
EXTT0=
EXTT1=
EXTT2=
EXTT3=
EXTT4=
EXTT5=
EXTT6=
EXTT7=
EXTT8=
EXTT9=
EXTT10=
EXTT11=
EXTT12=
EXTT13=
PLAYORDER=
